<?xml version="1.0" encoding="utf-8"?>
<!-- Generator: Adobe Illustrator 22.0.0, SVG Export Plug-In . SVG Version: 6.00 Build 0)  -->
<svg version="1.1" id="Layer_1" xmlns="http://www.w3.org/2000/svg" xmlns:xlink="http://www.w3.org/1999/xlink" x="0px" y="0px"
	 viewBox="0 0 466.5 93.2" style="enable-background:new 0 0 466.5 93.2;" xml:space="preserve">
<style type="text/css">
	.st0{fill:#FFFFFF;}
</style>
<g>
	<path class="st0" d="M130.2,65.2c-2.6,0-4.8-0.5-6.7-1.5c-1.9-1-3.4-2.5-4.4-4.5V79h-12.9V28.8h11.2v5.4c1.3-1.9,2.8-3.4,4.7-4.5
		c1.9-1,4.1-1.6,6.9-1.6c2.4,0,4.6,0.5,6.6,1.4s3.8,2.2,5.2,3.8c1.5,1.6,2.6,3.6,3.4,5.8c0.8,2.3,1.3,4.7,1.3,7.3
		c0,2.7-0.4,5.2-1.2,7.4c-0.8,2.3-1.8,4.3-3.2,6s-3,3-4.8,3.9C134.4,64.7,132.4,65.2,130.2,65.2z M125.7,54.3c1,0,1.8-0.2,2.6-0.6
		c0.8-0.4,1.5-1,2-1.7c0.6-0.7,1-1.6,1.4-2.5c0.3-1,0.5-2,0.5-3.1c0-2.3-0.6-4.1-1.9-5.4c-1.3-1.4-3-2-5.1-2c-2.4,0-4.4,1.2-6.1,3.7
		v6.2c0.6,1.6,1.6,2.9,2.8,3.9C123,53.8,124.3,54.3,125.7,54.3z"/>
	<path class="st0" d="M171.1,65.2c-3.2,0-6-0.5-8.5-1.5c-2.4-1-4.5-2.4-6.1-4.1c-1.7-1.7-2.9-3.7-3.7-5.9s-1.3-4.6-1.3-7
		s0.4-4.8,1.3-7c0.8-2.2,2.1-4.2,3.7-5.9c1.7-1.7,3.7-3.1,6.1-4.1c2.4-1,5.2-1.5,8.5-1.5c3.2,0,6,0.5,8.4,1.5s4.5,2.4,6.2,4.1
		s2.9,3.7,3.7,5.9s1.3,4.6,1.3,7s-0.4,4.8-1.3,7c-0.8,2.2-2.1,4.2-3.7,5.9c-1.7,1.7-3.7,3.1-6.2,4.1
		C177.1,64.7,174.3,65.2,171.1,65.2z M164.8,46.6c0,2.4,0.6,4.3,1.8,5.6c1.2,1.4,2.7,2,4.6,2c1.9,0,3.4-0.7,4.6-2
		c1.2-1.4,1.8-3.2,1.8-5.6c0-2.4-0.6-4.3-1.8-5.6c-1.2-1.4-2.7-2-4.6-2c-1.9,0-3.4,0.7-4.6,2C165.4,42.4,164.8,44.2,164.8,46.6z"/>
	<path class="st0" d="M198.4,14.9h12.9v35.4c0,2.7,1.1,4.1,3.3,4.1c0.5,0,1.1-0.1,1.8-0.3c0.6-0.2,1.2-0.4,1.8-0.7l1.6,9.5
		c-1.5,0.7-3.3,1.3-5.2,1.7c-1.9,0.4-3.8,0.6-5.5,0.6c-3.4,0-6.1-0.9-8-2.7s-2.8-4.3-2.8-7.7L198.4,14.9L198.4,14.9z"/>
	<path class="st0" d="M223.6,68.1c2.1,0.8,3.9,1.2,5.3,1.2c2.8,0,4.3-1.6,4.6-4.8l-13-35.8h13.3l6.8,24.8l5.5-24.8h12L246,68.8
		c-0.5,1.8-1.3,3.4-2.3,4.8s-2.2,2.7-3.6,3.7c-1.4,1-2.9,1.8-4.6,2.3c-1.7,0.5-3.4,0.8-5.2,0.8c-2.3,0-4.5-0.4-6.7-1.3L223.6,68.1
		L223.6,68.1z"/>
	<path class="st0" d="M301,64.5h-12.9V44.4c0-1.8-0.4-3-1.2-3.8c-0.8-0.8-1.8-1.2-3-1.2c-0.4,0-0.9,0.1-1.5,0.4
		c-0.6,0.2-1.1,0.6-1.7,1s-1.1,1-1.6,1.6s-0.9,1.3-1.2,2.1v20.1H265V14.9h12.9v19.2c1.3-1.9,2.9-3.4,5-4.5s4.3-1.5,6.9-1.5
		c2.5,0,4.5,0.4,6,1.3s2.6,1.9,3.4,3.2c0.8,1.3,1.3,2.7,1.5,4.2s0.3,2.9,0.3,4.2L301,64.5L301,64.5z"/>
	<path class="st0" d="M328.3,65.2c-3.2,0-6-0.5-8.5-1.5c-2.4-1-4.5-2.4-6.1-4.1c-1.7-1.7-2.9-3.7-3.7-5.9s-1.3-4.6-1.3-7
		s0.4-4.8,1.3-7c0.8-2.2,2.1-4.2,3.7-5.9c1.7-1.7,3.7-3.1,6.1-4.1s5.2-1.5,8.5-1.5c3.2,0,6,0.5,8.4,1.5s4.5,2.4,6.2,4.1
		s2.9,3.7,3.7,5.9c0.8,2.2,1.3,4.6,1.3,7s-0.4,4.8-1.3,7c-0.8,2.2-2.1,4.2-3.7,5.9c-1.7,1.7-3.7,3.1-6.2,4.1
		C334.3,64.7,331.4,65.2,328.3,65.2z M321.9,46.6c0,2.4,0.6,4.3,1.8,5.6c1.2,1.4,2.7,2,4.6,2s3.4-0.7,4.6-2c1.2-1.4,1.8-3.2,1.8-5.6
		c0-2.4-0.6-4.3-1.8-5.6c-1.2-1.4-2.7-2-4.6-2s-3.4,0.7-4.6,2C322.5,42.4,321.9,44.2,321.9,46.6z"/>
	<path class="st0" d="M380.1,39.8c-2.5,0-4.8,0.3-6.8,0.8s-3.6,1.5-4.6,2.7v21.2h-12.9V28.8h11.8v6.8c1.3-2.4,2.8-4.3,4.7-5.5
		c1.9-1.3,3.9-1.9,6.1-1.9c0.9,0,1.4,0,1.6,0.1L380.1,39.8L380.1,39.8z"/>
	<path class="st0" d="M402.2,65.2c-3.1,0-6.2-0.5-9.2-1.5s-5.5-2.5-7.6-4.5l4.4-7.8c2.2,1.5,4.4,2.7,6.4,3.5c2.1,0.8,4,1.2,5.7,1.2
		c1.8,0,2.7-0.6,2.7-1.7c0-0.6-0.4-1.2-1.1-1.6c-0.7-0.5-2.1-1-4.1-1.6c-2.5-0.7-4.7-1.4-6.4-2.1c-1.7-0.7-3.1-1.5-4.1-2.3
		c-1.1-0.8-1.8-1.7-2.3-2.7s-0.7-2.2-0.7-3.5c0-1.8,0.4-3.5,1.1-5s1.7-2.9,3-4c1.3-1.1,2.8-2,4.6-2.6c1.8-0.6,3.8-0.9,5.9-0.9
		c2.6,0,5.1,0.3,7.5,1s4.8,2.1,7.2,4.1l-4.9,7.8c-2.2-1.5-4.1-2.5-5.6-3.1s-2.9-0.9-4.2-0.9c-0.8,0-1.4,0.1-1.9,0.4
		c-0.5,0.3-0.7,0.8-0.7,1.4c0,0.7,0.4,1.2,1.1,1.7c0.7,0.4,2.2,0.9,4.3,1.5c2.6,0.7,4.8,1.4,6.5,2.1c1.8,0.7,3.2,1.6,4.2,2.4
		c1.1,0.9,1.8,1.9,2.3,3s0.7,2.4,0.7,3.8c0,1.9-0.3,3.5-1,5s-1.7,2.7-3,3.7s-2.9,1.8-4.7,2.4C406.6,64.9,404.6,65.2,402.2,65.2z"/>
	<path class="st0" d="M442.6,65.2c-3.1,0-5.9-0.5-8.4-1.5c-2.4-1-4.5-2.3-6.2-4s-2.9-3.6-3.8-5.8s-1.3-4.5-1.3-6.9
		c0-2.6,0.4-5,1.3-7.3s2.1-4.3,3.7-6.1c1.7-1.7,3.7-3.1,6.1-4.1s5.2-1.5,8.5-1.5c3.2,0,6,0.5,8.4,1.5s4.5,2.4,6.2,4.1
		s2.9,3.7,3.7,5.9c0.8,2.2,1.3,4.6,1.3,7c0,0.7,0,1.4-0.1,2.1c-0.1,0.7-0.1,1.3-0.2,1.9h-25.1c0.1,1.9,0.8,3.3,2.1,4.1
		c1.3,0.8,2.7,1.3,4.1,1.3s2.7-0.3,4-1s2.1-1.5,2.5-2.7l10.9,3.1c-1.5,2.9-3.7,5.2-6.7,7C450.7,64.3,447,65.2,442.6,65.2z
		 M448.3,42.8c-0.2-1.7-0.9-3.1-1.9-4.1s-2.4-1.5-4-1.5s-3,0.5-4,1.5s-1.7,2.4-1.9,4.1H448.3z"/>
</g>
<polygon class="st0" points="23.6,92.5 48.2,34.2 6.7,51 "/>
<polygon class="st0" points="48.2,34.2 72.3,92.7 89.6,51.4 "/>
<polygon class="st0" points="48.2,35.8 41.6,54.2 58.3,61.8 "/>
<polygon class="st0" points="48.2,34.2 32,18.8 0.1,19.1 16.1,34.7 "/>
<polygon class="st0" points="87,0.7 57.7,12.6 98.6,30.1 "/>
<polygon class="st0" points="48.6,33.3 57.2,13.4 77.4,22.1 69.2,42.1 "/>
<polygon class="st0" points="89.6,50.5 78.1,22.9 70.3,42.2 "/>
</svg>
